<?xml version="1.0" encoding="UTF-8"?>
<svg id="Layer_1" data-name="Layer 1" xmlns="http://www.w3.org/2000/svg" viewBox="0 0 260.96 260.96">
  <defs>
    <style>
      .cls-1 {
        fill: #caf6f8;
      }

      .cls-1, .cls-2, .cls-3 {
        stroke-width: 0px;
      }

      .cls-3 {
        fill: #231f20;
      }
    </style>
  </defs>
  <ellipse class="cls-1" cx="127.5" cy="127.46" rx="120.5" ry="123"/>
  <path class="cls-3" d="m130.48,0C58.53,0,0,58.53,0,130.48s58.53,130.48,130.48,130.48,130.48-58.53,130.48-130.48S202.43,0,130.48,0Zm0,239.91c-60.34,0-109.43-49.09-109.43-109.43S70.14,21.05,130.48,21.05s109.43,49.09,109.43,109.43-49.09,109.43-109.43,109.43Z"/>
  <g id="Solid-2">
    <path class="cls-2" d="m203.36,198.69c.37-.31.45-.85.19-1.25l-28.2-44.14c-5.94-9-14.76-15.71-25.01-19.03l-2.91-1.34c-.29,7.25-5.02,13.58-11.9,15.89l48.79,48.8c5.14,5.16,13.35,5.62,19.04,1.07Z"/>
    <circle class="cls-2" cx="129.97" cy="132.26" r="4.13"/>
    <path class="cls-2" d="m114.4,132.26c0,8.6,6.97,15.58,15.58,15.58s15.58-6.97,15.58-15.58-6.97-15.58-15.58-15.58h0c-8.6,0-15.57,6.98-15.58,15.58Zm15.58-6.04c3.34,0,6.04,2.7,6.04,6.04s-2.7,6.04-6.04,6.04-6.04-2.7-6.04-6.04c0-3.33,2.71-6.04,6.04-6.04Z"/>
    <path class="cls-2" d="m56.59,65.83c-.37.31-.45.85-.19,1.25l28.2,44.14c5.94,9,14.76,15.71,25.01,19.03l2.91,1.34c.29-7.25,5.02-13.58,11.9-15.89l-48.79-48.8c-5.14-5.16-13.35-5.62-19.04-1.07Z"/>
    <path class="cls-2" d="m129.97,70.26c-10.68,0-21.17,2.76-30.47,8.01-.47.24-.65.82-.4,1.29.24.47.82.65,1.29.4.02-.01.04-.02.06-.03,23.53-13.28,53.03-9.23,72.09,9.91.37.38.97.39,1.35.03.38-.37.39-.97.03-1.35,0,0-.02-.02-.02-.02-11.61-11.71-27.43-18.28-43.91-18.24Z"/>
    <path class="cls-2" d="m86.06,174.67c-.37.37-.37.98,0,1.35h0c19.67,19.75,50.11,23.93,74.38,10.22.47-.24.65-.82.4-1.29s-.82-.65-1.29-.4c-.02.01-.04.02-.06.03-23.53,13.28-53.03,9.23-72.09-9.91-.37-.37-.98-.37-1.35,0Z"/>
    <path class="cls-2" d="m152.72,95.5c.27-.45.12-1.04-.33-1.31-12-7.09-26.65-8.08-39.51-2.68-.49.2-.71.76-.51,1.25s.76.71,1.25.51c12.29-5.17,26.31-4.22,37.79,2.56.45.27,1.04.12,1.31-.33Z"/>
    <path class="cls-2" d="m107.23,169.02c-.27.45-.12,1.04.33,1.31,12,7.09,26.65,8.08,39.51,2.68.49-.2.71-.76.51-1.25-.2-.49-.76-.71-1.25-.51h0c-12.29,5.17-26.31,4.22-37.79-2.56-.45-.27-1.04-.12-1.31.33Z"/>
    <path class="cls-2" d="m129.97,212.06c15.43.02,30.54-4.46,43.47-12.9.45-.28.58-.87.3-1.31-.28-.45-.87-.58-1.31-.3-.01,0-.02.01-.03.02-12.62,8.23-27.36,12.6-42.43,12.59-42.95,0-77.89-34.94-77.89-77.89-.01-7.72,1.13-15.4,3.39-22.78.16-.5-.11-1.04-.62-1.2-.5-.16-1.04.11-1.2.62,0,0,0,.02,0,.02-2.31,7.56-3.49,15.43-3.48,23.34,0,44,35.8,79.8,79.8,79.8Z"/>
    <path class="cls-2" d="m129.97,52.46c-15.43-.02-30.54,4.47-43.47,12.9-.45.28-.58.87-.3,1.31.28.45.87.58,1.31.3.01,0,.02-.01.03-.02,12.62-8.23,27.36-12.6,42.43-12.59,42.95,0,77.89,34.94,77.89,77.89.01,7.72-1.13,15.4-3.39,22.78-.16.5.11,1.04.62,1.2.5.16,1.04-.11,1.2-.62,0,0,0-.02,0-.02,2.31-7.56,3.49-15.43,3.48-23.34,0-44-35.8-79.8-79.8-79.8Z"/>
  </g>
</svg>