<?xml version="1.0" encoding="UTF-8"?>
<svg id="Layer_1" data-name="Layer 1" xmlns="http://www.w3.org/2000/svg" viewBox="0 0 1280 480">
  <defs>
    <style>
      .cls-1 {
        fill: #101119;
      }

      .cls-2 {
        letter-spacing: -.05em;
      }

      .cls-2, .cls-3 {
        font-size: 28px;
      }

      .cls-2, .cls-3, .cls-4 {
        font-family: Verdana-Bold, Verdana;
        font-weight: 700;
      }

      .cls-2, .cls-5 {
        fill: #e7e7e7;
      }

      .cls-3 {
        fill: #fff;
      }

      .cls-6 {
        fill: none;
        stroke: lime;
        stroke-miterlimit: 10;
        stroke-width: 3px;
      }

      .cls-4, .cls-7 {
        fill: lime;
        font-size: 36px;
      }

      .cls-8 {
        letter-spacing: -.15em;
      }

      .cls-9 {
        letter-spacing: -.02em;
      }

      .cls-7 {
        font-family: Verdana, Verdana;
      }
    </style>
  </defs>
  <rect class="cls-1" width="1280" height="480"/>
  <g id="Layer_1-2" data-name="Layer 1-2">
    <g>
      <path class="cls-5" d="M589.94,239.94s48.22,63.96,100.12,0c0,0-44.87-63.62-100.12,0h0ZM617.22,240.01c0-12.63,10.24-22.86,22.86-22.86s22.86,10.24,22.86,22.86-10.24,22.86-22.86,22.86-22.86-10.24-22.86-22.86h0Z"/>
      <g>
        <path class="cls-5" d="M640,170.85c-38.13,0-69.16,31.02-69.16,69.16s31.02,69.16,69.16,69.16,69.16-31.02,69.16-69.16-31.02-69.16-69.16-69.16ZM640,298.01c-31.98,0-58-26.02-58-58s26.02-58,58-58,58,26.02,58,58-26.02,58-58,58Z"/>
        <path class="cls-5" d="M580.2,147.58h0l8.18,14.17c1.03,1.79,2.91,2.79,4.83,2.79.95,0,1.9-.24,2.78-.75,1.17-.67,2-1.71,2.44-2.88.56-1.51.47-3.24-.39-4.74l-16.37-28.35h0l-9.13-15.82c-1.54-2.67-4.95-3.58-7.62-2.04-2.67,1.54-3.58,4.95-2.04,7.62l17.32,29.99h0Z"/>
        <path class="cls-5" d="M512,172.55l29.99,17.32h0l14.17,8.18c.88.51,1.84.75,2.78.75s1.91-.25,2.76-.73c.84-.47,1.56-1.17,2.08-2.07,1.44-2.5.73-5.66-1.56-7.31-.15-.11-.31-.21-.48-.31l-28.35-16.37h0l-15.82-9.13c-2.67-1.54-6.08-.63-7.62,2.04s-.63,6.08,2.04,7.62h0Z"/>
        <path class="cls-5" d="M693.85,322.11l-2.22-3.84c-.1-.17-.2-.33-.31-.48h0c-1.65-2.29-4.81-3.01-7.31-1.56-.16.1-.33.2-.48.31-2.29,1.65-3.01,4.81-1.56,7.31l.38.66,7.8,13.51h0s8.18,14.17,8.18,14.17h0l9.13,15.81c1.03,1.79,2.91,2.79,4.83,2.79.95,0,1.91-.24,2.78-.75,2.67-1.54,3.58-4.95,2.04-7.62l-23.28-40.32v.02Z"/>
        <path class="cls-5" d="M768.01,307.47l-44.17-25.5c-2.67-1.54-6.08-.63-7.62,2.04-1.35,2.34-.82,5.24,1.12,6.96.28.24.58.47.92.66l14.17,8.18h0l14.17,8.18h0l15.81,9.13c.88.51,1.84.75,2.78.75,1.93,0,3.81-1,4.83-2.79,1.54-2.67.63-6.08-2.04-7.62h.02Z"/>
        <path class="cls-5" d="M784.59,234.43h-51c-2.7,0-4.95,1.91-5.46,4.45-.07.36-.11.74-.11,1.12,0,2.5,1.65,4.62,3.92,5.33.52.16,1.08.25,1.66.25h51c3.08,0,5.58-2.5,5.58-5.58s-2.5-5.58-5.58-5.58h0Z"/>
        <path class="cls-5" d="M640,152.01c2.7,0,4.95-1.91,5.46-4.45.07-.36.11-.74.11-1.12v-51c0-3.08-2.5-5.58-5.58-5.58s-5.58,2.5-5.58,5.58v51c0,.39.04.76.11,1.12.52,2.54,2.77,4.45,5.46,4.45h0Z"/>
        <path class="cls-5" d="M610.4,151.06c.67,2.49,2.92,4.13,5.38,4.13.48,0,.96-.06,1.45-.19,2.97-.8,4.74-3.86,3.94-6.83l-4.23-15.81c-.8-2.98-3.86-4.74-6.83-3.94-2.97.8-4.74,3.86-3.94,6.83l4.23,15.81Z"/>
        <path class="cls-5" d="M569.89,177.79c1.09,1.09,2.52,1.63,3.94,1.63s2.86-.55,3.94-1.63c2.18-2.18,2.18-5.71,0-7.89l-11.58-11.58c-2.18-2.18-5.71-2.18-7.89,0s-2.18,5.71,0,7.89l11.58,11.58Z"/>
        <path class="cls-5" d="M551.06,210.4l-15.81-4.23c-2.97-.8-6.03.97-6.83,3.94-.8,2.97.97,6.03,3.94,6.83l15.81,4.23c.48.13.97.19,1.45.19,2.46,0,4.72-1.64,5.38-4.13.8-2.98-.97-6.04-3.94-6.83Z"/>
        <path class="cls-5" d="M530.06,245.59h16.37c1.54,0,2.94-.63,3.94-1.63.02-.02.04-.05.07-.07.1-.11.2-.21.29-.32.57-.69.98-1.52,1.16-2.42.07-.36.11-.74.11-1.12,0-.54-.08-1.05-.22-1.54-.01-.04-.02-.08-.03-.12-.1-.32-.23-.64-.39-.93-.01-.02-.02-.05-.03-.07-.06-.11-.13-.22-.2-.32-.03-.04-.05-.09-.08-.13-.1-.14-.2-.28-.31-.41,0,0,0-.01-.01-.02-.08-.1-.16-.19-.25-.28-.04-.04-.07-.08-.11-.12-.04-.04-.08-.07-.12-.11-.09-.08-.18-.17-.28-.25,0,0-.01,0-.02-.01-.13-.11-.27-.21-.41-.31-.04-.03-.09-.05-.13-.08-.11-.07-.21-.14-.32-.2-.02-.01-.05-.02-.07-.03-.3-.15-.6-.29-.93-.39-.04-.01-.08-.02-.12-.03-.49-.14-1-.22-1.54-.22h-51.02c-3.08,0-5.58,2.5-5.58,5.58s2.5,5.58,5.58,5.58h34.64Z"/>
        <path class="cls-5" d="M548.17,258.84l-15.81,4.23c-2.97.8-4.74,3.86-3.94,6.83.67,2.49,2.92,4.13,5.38,4.13.48,0,.96-.06,1.45-.19l15.81-4.23c2.97-.8,4.74-3.86,3.94-6.83-.8-2.97-3.86-4.74-6.83-3.94Z"/>
        <path class="cls-5" d="M564.35,288.25c.37-1.38.21-2.9-.56-4.23-1.54-2.67-4.95-3.58-7.62-2.04l-28.35,16.37h0l-15.81,9.13c-2.67,1.54-3.58,4.95-2.04,7.62,1.03,1.79,2.91,2.79,4.83,2.79.95,0,1.9-.24,2.78-.75l29.99-17.32h0l14.17-8.18c1.34-.77,2.23-2.01,2.6-3.39h.01Z"/>
        <path class="cls-5" d="M566.2,321.7l11.58-11.58c2.18-2.18,2.18-5.71,0-7.89-2.18-2.18-5.71-2.18-7.89,0l-11.58,11.58c-2.18,2.18-2.18,5.71,0,7.89,1.09,1.09,2.52,1.63,3.94,1.63s2.86-.55,3.94-1.63Z"/>
        <path class="cls-5" d="M617.23,325.02c-2.98-.8-6.04.97-6.83,3.94l-4.23,15.81c-.8,2.97.97,6.04,3.94,6.83.48.13.97.19,1.45.19,2.46,0,4.72-1.64,5.38-4.13l4.23-15.81c.8-2.98-.97-6.04-3.94-6.83Z"/>
        <path class="cls-5" d="M645.47,332.47l-.05-.19c-.03-.11-.05-.23-.09-.34-.7-2.27-2.82-3.92-5.33-3.92-.54,0-1.05.08-1.54.22-.04.01-.08.02-.12.03-.32.1-.64.23-.93.39-.02.01-.05.02-.07.03-.11.06-.22.13-.33.2-.04.03-.09.05-.13.08-.14.1-.28.2-.41.31,0,0-.01,0-.02.01-.1.08-.19.16-.28.25-.04.04-.08.07-.12.11s-.07.08-.11.12c-.08.09-.17.18-.25.28,0,0,0,.01-.01.02-.11.13-.21.27-.31.41-.03.04-.05.09-.08.13-.07.11-.14.21-.2.32-.01.02-.02.05-.03.07-.15.3-.29.6-.39.93-.01.04-.02.08-.03.12-.14.49-.22,1-.22,1.54v32.73h0v18.26c0,3.08,2.5,5.58,5.58,5.58s5.58-2.5,5.58-5.58v-51c0-.39-.04-.76-.11-1.12l-.02.02Z"/>
        <path class="cls-5" d="M669.61,328.96c-.8-2.98-3.86-4.74-6.83-3.94-2.97.8-4.74,3.85-3.94,6.83l4.23,15.81c.67,2.49,2.92,4.13,5.38,4.13.48,0,.96-.06,1.45-.19,2.97-.8,4.74-3.85,3.94-6.83l-4.23-15.81Z"/>
        <path class="cls-5" d="M710.12,302.24c-2.18-2.18-5.71-2.18-7.89,0-2.18,2.18-2.18,5.71,0,7.89l11.58,11.58c1.09,1.09,2.52,1.63,3.94,1.63s2.86-.55,3.94-1.63c2.18-2.18,2.18-5.71,0-7.89l-11.58-11.58Z"/>
        <path class="cls-5" d="M728.95,269.62l15.81,4.23c.48.13.97.19,1.45.19,2.46,0,4.72-1.64,5.38-4.13.8-2.97-.97-6.04-3.94-6.83l-15.81-4.23c-2.98-.8-6.04.97-6.83,3.94-.8,2.97.97,6.04,3.94,6.83Z"/>
        <path class="cls-5" d="M731.84,221.18l15.81-4.23c2.97-.8,4.74-3.85,3.94-6.83-.8-2.97-3.86-4.74-6.83-3.94l-15.81,4.23c-2.97.8-4.74,3.86-3.94,6.83.67,2.49,2.92,4.13,5.38,4.13.48,0,.96-.06,1.45-.19Z"/>
        <path class="cls-5" d="M713.8,158.32l-11.57,11.58c-2.18,2.18-2.18,5.71,0,7.89,1.09,1.09,2.52,1.63,3.94,1.63s2.86-.55,3.94-1.63l11.57-11.58c2.18-2.18,2.18-5.71,0-7.89s-5.71-2.18-7.89,0Z"/>
        <path class="cls-5" d="M662.78,155.01c.48.13.97.19,1.45.19,2.46,0,4.72-1.64,5.38-4.13l4.23-15.81c.8-2.97-.97-6.04-3.94-6.83-2.98-.8-6.04.97-6.83,3.94l-4.23,15.81c-.8,2.97.97,6.04,3.94,6.83Z"/>
        <path class="cls-5" d="M596.48,316.53c-.15-.11-.31-.21-.48-.31-2.67-1.54-6.08-.63-7.62,2.04l-16.37,28.35h0s-9.13,15.82-9.13,15.82c-1.54,2.67-.63,6.08,2.04,7.62.88.51,1.84.75,2.78.75,1.93,0,3.81-1,4.83-2.79l17.32-29.99h0l8.18-14.17c.48-.83.72-1.74.75-2.64.05-1.8-.78-3.57-2.31-4.67h0Z"/>
        <path class="cls-5" d="M717.78,188.7c-2.29,1.65-3.01,4.81-1.56,7.31,1.03,1.79,2.91,2.79,4.83,2.79.24,0,.48-.02.71-.05.1-.01.2-.04.3-.06.14-.03.28-.04.41-.08.47-.12.93-.31,1.37-.56l14.17-8.18h0l14.17-8.18h0l15.82-9.13c2.67-1.54,3.58-4.95,2.04-7.62-1.54-2.67-4.95-3.58-7.62-2.04l-44.17,25.5c-.16.1-.33.2-.48.31h.01Z"/>
        <path class="cls-5" d="M682.7,162.76c.24.27.52.51.82.73.15.11.31.21.48.31.88.51,1.84.75,2.78.75,1.2,0,2.39-.39,3.36-1.12.58-.44,1.09-1,1.47-1.67l8.18-14.17,8.18-14.17h0s9.13-15.82,9.13-15.82c1.54-2.67.63-6.08-2.04-7.62s-6.08-.63-7.62,2.04l-25.5,44.17c-1.25,2.17-.89,4.83.73,6.57,0,0,0,0,0,0h.01Z"/>
      </g>
      <g id="Solid-2">
        <path class="cls-5" d="M656.19,254.86c.08-.07.1-.19.04-.28l-6.23-9.75c-1.31-1.99-3.26-3.47-5.52-4.2l-.64-.3c-.06,1.6-1.11,3-2.63,3.51l10.78,10.78c1.13,1.14,2.95,1.24,4.21.24h-.01Z"/>
        <circle class="cls-5" cx="639.98" cy="240.18" r=".91"/>
        <path class="cls-5" d="M636.54,240.18c0,1.9,1.54,3.44,3.44,3.44s3.44-1.54,3.44-3.44-1.54-3.44-3.44-3.44h0c-1.9,0-3.44,1.54-3.44,3.44ZM639.98,238.84c.74,0,1.34.6,1.34,1.34s-.6,1.34-1.34,1.34-1.34-.6-1.34-1.34.6-1.34,1.34-1.34Z"/>
        <path class="cls-5" d="M623.77,225.5c-.08.07-.1.19-.04.28l6.23,9.75c1.31,1.99,3.26,3.47,5.52,4.2l.64.3c.06-1.6,1.11-3,2.63-3.51l-10.78-10.78c-1.13-1.14-2.95-1.24-4.21-.24h.01Z"/>
        <path class="cls-5" d="M639.98,226.48c-2.36,0-4.67.61-6.73,1.77-.1.05-.14.18-.09.29.05.1.18.14.29.09,0,0,.01,0,.01,0,5.2-2.94,11.71-2.04,15.93,2.19.08.08.21.08.3,0s.08-.21,0-.3h0c-2.57-2.59-6.06-4.04-9.7-4.03h0Z"/>
        <path class="cls-5" d="M630.28,249.55c-.08.08-.08.22,0,.3h0c4.35,4.36,11.07,5.28,16.43,2.26.1-.05.14-.18.09-.29s-.18-.14-.29-.09c0,0-.01,0-.01,0-5.2,2.94-11.71,2.04-15.93-2.19-.08-.08-.22-.08-.3,0h0Z"/>
        <path class="cls-5" d="M645.01,232.06c.06-.1.03-.23-.07-.29-2.65-1.56-5.89-1.79-8.73-.59-.11.05-.16.17-.11.28s.17.16.28.11c2.71-1.14,5.81-.93,8.35.57.1.06.23.03.29-.07h0Z"/>
        <path class="cls-5" d="M634.96,248.31c-.06.1-.03.23.07.29,2.65,1.56,5.89,1.79,8.73.59.11-.05.16-.17.11-.28-.05-.11-.17-.16-.28-.11h0c-2.71,1.14-5.81.93-8.35-.57-.1-.06-.23-.03-.29.07h0Z"/>
        <path class="cls-5" d="M639.98,257.81c3.41,0,6.75-.99,9.6-2.85.1-.06.13-.19.07-.29-.06-.1-.19-.13-.29-.07h0c-2.79,1.82-6.04,2.78-9.37,2.78-9.49,0-17.21-7.72-17.21-17.21,0-1.71.25-3.4.75-5.03.04-.11-.03-.23-.14-.27-.11-.04-.23.03-.27.14h0c-.51,1.67-.77,3.41-.77,5.16,0,9.72,7.91,17.63,17.63,17.63h0Z"/>
        <path class="cls-5" d="M639.98,222.55c-3.41,0-6.75.99-9.6,2.85-.1.06-.13.19-.07.29.06.1.19.13.29.07h0c2.79-1.82,6.04-2.78,9.37-2.78,9.49,0,17.21,7.72,17.21,17.21,0,1.71-.25,3.4-.75,5.03-.04.11.03.23.14.27.11.04.23-.03.27-.14h0c.51-1.67.77-3.41.77-5.16,0-9.72-7.91-17.63-17.63-17.63h0Z"/>
      </g>
    </g>
  </g>
  <text class="cls-2" transform="translate(16.02 424)"><tspan x="0" y="0">Real-Time Drone </tspan><tspan x="0" y="33.6">Object Detection &amp; Tracking</tspan></text>
  <rect class="cls-6" x="465" y="65" width="350" height="350"/>
  <text class="cls-4" transform="translate(831.28 88.92)"><tspan x="0" y="0">ID: Icarus Eye</tspan></text>
  <text class="cls-7" transform="translate(831.26 134.57)"><tspan x="0" y="0">Confidence:</tspan><tspan class="cls-8" x="215.51" y="0"> </tspan><tspan class="cls-9" x="222.76" y="0">100</tspan></text>
  <text class="cls-3" transform="translate(1139.58 463.37)"><tspan x="0" y="0">FPS: 59</tspan></text>
</svg>